<!-- Phosphor Icons — DownloadSimple (Regular weight, 256×256)
  Source: @phosphor-icons/react (MIT License)
  Import in React: import { PhDownloadSimple } from '@phosphor-icons/react'
-->
<svg xmlns="http://www.w3.org/2000/svg" viewBox="0 0 256 256" width="16" height="16" fill="currentColor">
  <path d="M224,144v64a8,8,0,0,1-8,8H40a8,8,0,0,1-8-8V144a8,8,0,0,1,16,0v56H208V144a8,8,0,0,1,16,0Zm-101.66,5.66a8,8,0,0,0,11.32,0l40-40a8,8,0,0,0-11.32-11.32L136,124.69V32a8,8,0,0,0-16,0v92.69L93.66,98.34a8,8,0,0,0-11.32,11.32Z"/>
</svg>
